<?xml version="1.0" encoding="UTF-8"?>
<!DOCTYPE svg PUBLIC "-//W3C//DTD SVG 1.1//EN" "http://www.w3.org/Graphics/SVG/1.1/DTD/svg11.dtd">
<!-- Creator: CorelDRAW 2020 (64 Bit) -->
<svg xmlns="http://www.w3.org/2000/svg" xml:space="preserve" width="297mm" height="75.808mm" version="1.1" style="shape-rendering:geometricPrecision; text-rendering:geometricPrecision; image-rendering:optimizeQuality; fill-rule:evenodd; clip-rule:evenodd"
viewBox="0 0 29700 7580.8"
 xmlns:xlink="http://www.w3.org/1999/xlink"
 xmlns:xodm="http://www.corel.com/coreldraw/odm/2003">
 <defs>
  <style type="text/css">
   <![CDATA[
    .fil0 {fill:black}
    .fil1 {fill:#00439B}
   ]]>
  </style>
 </defs>
 <g id="Camada_x0020_1">
  <metadata id="CorelCorpID_0Corel-Layer"/>
  <g id="_2506822278048">
   <rect class="fil0" x="-0.52" y="8.25" width="1384.71" height="7564.48"/>
   <polygon class="fil0" points="1400.6,8.25 15.89,8.25 2768.89,7572.73 4153.6,7572.73 "/>
   <rect class="fil0" x="5538.3" y="8.25" width="1384.71" height="7564.48"/>
   <polygon class="fil0" points="5521.89,8.25 6906.6,8.25 4153.6,7572.73 2768.89,7572.73 "/>
   <path class="fil0" d="M12000.5 2284.61l0 3011.76c0,628.61 -619.94,1138.18 -1384.71,1138.18 -764.76,0 -1384.7,-509.57 -1384.7,-1138.18l0 -3011.76c0,-628.61 619.94,-1138.18 1384.7,-1138.18 764.77,0 1384.71,509.57 1384.71,1138.18zm-4154.12 0l0 3011.76c0,1257.19 1239.92,2276.36 2769.41,2276.36 1529.49,0 2769.42,-1019.17 2769.42,-2276.36l0 -3011.76c0,-1257.19 -1239.93,-2276.36 -2769.42,-2276.36 -1529.49,0 -2769.41,1019.17 -2769.41,2276.36z"/>
   <rect class="fil0" x="18513.98" y="8.25" width="1384.71" height="7564.48"/>
   <rect class="fil0" x="14359.86" y="8.25" width="1384.71" height="7564.48"/>
   <polygon class="fil0" points="15760.98,8.25 14376.27,8.25 18513.98,7572.73 19898.69,7572.73 "/>
   <rect class="fil0" transform="matrix(1.47333E-13 4.57256 -1.9659 4.27964E-14 25500.2 8.24629)" width="331.58" height="2203.72"/>
   <polygon class="fil1" points="25500.21,1542.39 25500.21,26.22 21167.92,3040.59 21167.92,4556.76 "/>
   <rect class="fil0" transform="matrix(1.47333E-13 4.57256 -1.9659 4.27964E-14 25500.2 6072.93)" width="331.58" height="2203.72"/>
   <polygon class="fil1" points="25500.21,6054.96 25500.21,7571.13 21167.92,4556.76 21167.92,3040.59 "/>
   <path class="fil0" d="M28314.75 2284.61l0 2993.8c0,628.62 -619.94,1138.18 -1384.71,1138.18l-1010.44 0 0 1138.19 1010.44 0c1529.49,0 2769.41,-1019.18 2769.41,-2276.37l0 -2993.8c0,-1257.19 -1239.92,-2276.36 -2769.41,-2276.36l-1010.44 0 0 1138.18 1010.44 0c764.77,0 1384.71,509.57 1384.71,1138.18z"/>
   <path class="fil1" d="M25919.6 783.12l1010.44 0c504.35,0 961.09,168.09 1291.62,439.82 330.58,271.69 535.08,647.11 535.08,1061.67l0 2993.8c0,414.63 -204.5,789.98 -535.08,1061.67 -330.53,271.73 -787.27,439.82 -1291.62,439.82l-1010.44 0 0 -726.61 1010.44 0c260.38,0 496.12,-86.74 666.63,-226.93 170.55,-140.15 276.08,-333.92 276.08,-547.95l0 -2993.8c0,-214.03 -105.53,-407.8 -276.08,-547.95 -170.51,-140.19 -406.25,-226.93 -666.63,-226.93l-1010.44 0 0 -726.61z"/>
   <path class="fil0" d="M12000.5 2284.61l0 3011.76c0,628.61 -619.94,1138.18 -1384.71,1138.18 -764.76,0 -1384.7,-509.57 -1384.7,-1138.18l0 -3011.76c0,-628.61 619.94,-1138.18 1384.7,-1138.18 764.77,0 1384.71,509.57 1384.71,1138.18zm-4154.12 0l0 3011.76c0,1257.19 1239.92,2276.36 2769.41,2276.36 1529.49,0 2769.42,-1019.17 2769.42,-2276.36l0 -3011.76c0,-1257.19 -1239.93,-2276.36 -2769.42,-2276.36 -1529.49,0 -2769.41,1019.17 -2769.41,2276.36z"/>
   <path class="fil0" d="M11692.57 6011.92c-253.86,257.77 -641.87,422.63 -1076.78,422.63 -764.77,0 -1384.7,-509.57 -1384.7,-1138.18l0 -3011.77c0,-182.39 52.28,-354.72 145.06,-507.53l-637.68 -1165.8c-548.45,415.93 -892.09,1011.61 -892.09,1673.33l0 3011.77c0,1257.18 1239.92,2276.36 2769.41,2276.36 630.17,0 1211.06,-173.12 1676.45,-464.5l-599.67 -1096.31z"/>
  </g>
 </g>
</svg>
